<svg width="100" height="100" viewBox="0 0 100 100" fill="none" xmlns="http://www.w3.org/2000/svg">
<path d="M49.8604 4.16406L6.25 19.3411L13.1417 75.8474L49.9062 95.8307L86.8604 75.5766L93.75 19.0724L49.8604 4.16406Z" fill="#BDBDBD"/>
<path d="M89.2042 21.9339L50 8.61719V91.0338L82.9833 72.9547L89.2042 21.9339Z" fill="#B71C1C"/>
<path d="M49.8763 8.57031L10.793 22.1724L17.0159 73.212L49.8971 91.0828L49.9992 91.0286V8.61198L49.8763 8.57031Z" fill="#DD2C00"/>
<path d="M50 12.4922V32.3005L67.8708 70.8339H77.0562L50 12.4922Z" fill="#BDBDBD"/>
<path d="M22.9453 70.8339H32.1307L50.0016 32.3005V12.4922L22.9453 70.8339Z" fill="#EEEEEE"/>
<path d="M50 50H62.5V58.3333H50V50Z" fill="#BDBDBD"/>
<path d="M37.5 50H50V58.3333H37.5V50Z" fill="#EEEEEE"/>
</svg>
