<svg width="100" height="100" viewBox="0 0 100 100" fill="none" xmlns="http://www.w3.org/2000/svg">
<path fill-rule="evenodd" clip-rule="evenodd" d="M68.7805 33.4453C70.0344 37.0727 70.9375 40.7758 71.2344 44.6141C71.6031 49.3758 71.4344 54.1039 70.4305 58.7875C70.4031 58.9164 70.3453 59.0375 70.3023 59.1625C69.9875 59.1633 69.6664 59.1242 69.3586 59.1719C66.7578 59.5805 64.1594 60.0039 61.5609 60.425C58.875 60.8602 56.1852 61.2781 53.5039 61.743C52.5539 61.907 51.3781 61.7109 50.9945 63.025C50.9836 63.0609 50.8742 63.0672 50.8109 63.0875L50.9406 55.2352L50.8086 36.2883L52.0602 36.0734C54.107 35.7383 56.1539 35.3984 58.2023 35.0727C60.6469 34.6844 63.0938 34.307 65.5398 33.9281C66.6188 33.7602 67.6992 33.6063 68.7805 33.4453Z" fill="#439934"/>
<path fill-rule="evenodd" clip-rule="evenodd" d="M48.2242 85.9828C46.9039 84.8477 45.5375 83.7625 44.2719 82.5687C37.4617 76.1453 32.4804 68.5852 30.0273 59.4703C29.3515 56.9617 28.9008 54.4125 28.7562 51.8203C28.6547 50.0062 28.5078 48.1758 28.6359 46.3711C28.9773 41.5711 29.6711 36.8172 31.0789 32.1937L31.1562 32.0859C31.2929 32.268 31.4898 32.4289 31.5594 32.6344C32.9336 36.6812 34.2976 40.7312 35.6547 44.7836C39.9187 57.518 44.1773 70.2555 48.4484 82.9867C48.532 83.2352 48.7484 83.4391 48.9039 83.6633L48.2242 85.9828Z" fill="#45A538"/>
<path fill-rule="evenodd" clip-rule="evenodd" d="M68.7789 33.4477C67.6977 33.6086 66.6164 33.7625 65.5375 33.9289C63.0914 34.3078 60.6446 34.6852 58.2 35.0734C56.1516 35.3992 54.1047 35.7391 52.0578 36.0742L50.8063 36.2891L50.7969 35.4727C50.7555 34.8016 50.6844 34.1312 50.6766 33.4602C50.6227 29.1805 50.5891 24.9008 50.536 20.6211C50.5031 17.9422 50.4539 15.2641 50.3992 12.5859C50.3656 10.9219 50.3297 9.25703 50.2547 7.59531C50.2141 6.70234 50.0703 5.81406 50.0117 4.92109C49.9789 4.40781 50.0242 3.89063 50.0344 3.375C50.6727 4.61172 51.2969 5.85781 51.9531 7.08516C52.9899 9.02578 54.6414 10.4555 56.1281 12.0156C62.0055 18.1812 66.1782 25.35 68.7789 33.4477Z" fill="#46A037"/>
<path fill-rule="evenodd" clip-rule="evenodd" d="M50.8094 63.0881C50.8727 63.0678 50.9828 63.0615 50.993 63.0256C51.3766 61.7115 52.5523 61.9076 53.5023 61.7436C56.1836 61.2795 58.8734 60.8608 61.5594 60.4256C64.1578 60.0045 66.7562 59.5811 69.357 59.1725C69.6648 59.124 69.9859 59.1639 70.3008 59.1631C69.8148 60.8975 69.432 62.6694 68.8156 64.3561C68.1156 66.2694 67.2688 68.1366 66.3695 69.967C65.0233 72.6972 63.3572 75.2577 61.4062 77.5944C59.907 79.3975 58.2359 81.0639 56.5609 82.71C55.6352 83.6201 54.5437 84.3615 53.5281 85.1795L53.2648 84.9998L52.3164 84.1889L51.3352 82.0381C50.6649 79.5291 50.2993 76.9486 50.2461 74.3522L50.2641 73.9139L50.3977 72.0186C50.4422 71.3717 50.5016 70.7256 50.5289 70.0772C50.6297 67.7475 50.7172 65.4178 50.8094 63.0881Z" fill="#409433"/>
<path fill-rule="evenodd" clip-rule="evenodd" d="M50.8102 63.0852C50.718 65.4148 50.6305 67.7445 50.5313 70.075C50.5039 70.7234 50.4445 71.3695 50.4 72.0164L49.8023 72.2422C48.475 68.3344 47.1469 64.468 45.8477 60.5914C43.6992 54.1781 41.5766 47.7547 39.4313 41.3398C37.6985 36.1621 35.9537 30.9884 34.1969 25.8187C34.1148 25.5766 33.8789 25.3875 33.7148 25.1734L37.5398 18.1406C37.6711 18.3687 37.8445 18.582 37.9273 18.8273C39.6989 24.0634 41.4614 29.3024 43.2148 34.5445C45.493 41.3648 47.757 48.1906 50.0336 55.0117C50.1242 55.2844 50.2742 55.5359 50.4172 55.8414L50.9406 55.232L50.8102 63.0852Z" fill="#4FAA41"/>
<path fill-rule="evenodd" clip-rule="evenodd" d="M33.7164 25.1797C33.8805 25.3937 34.1156 25.5828 34.1984 25.825C35.9553 30.9946 37.7001 36.1683 39.4328 41.3461C41.5781 47.7609 43.7008 54.1844 45.8492 60.5977C47.1477 64.4734 48.4758 68.3406 49.8039 72.2484L50.4016 72.0227L50.268 73.918L50.1469 74.3547C49.9391 76.4297 49.7641 78.5094 49.5109 80.5797C49.3836 81.6172 49.1133 82.6359 48.9078 83.6633C48.7531 83.4391 48.5359 83.2352 48.4523 82.9867C44.1812 70.2547 39.9227 57.518 35.6586 44.7836C34.302 40.731 32.9369 36.6812 31.5633 32.6344C31.4937 32.4289 31.2977 32.268 31.1602 32.0859L33.7164 25.1797Z" fill="#4AA73C"/>
<path fill-rule="evenodd" clip-rule="evenodd" d="M50.9398 55.2359L50.4164 55.8453C50.2734 55.5398 50.1234 55.2875 50.0328 55.0156C47.757 48.1945 45.4922 41.3687 43.2141 34.5484C41.4606 29.3063 39.6981 24.0673 37.9266 18.8312C37.8445 18.5859 37.6711 18.3719 37.5391 18.1445L42.2695 11.9219C42.4188 12.1211 42.6313 12.2984 42.7086 12.5227C44.0219 16.3672 45.3234 20.2164 46.6172 24.068C47.8258 27.6648 49.0164 31.2672 50.2391 34.8594C50.3211 35.1 50.6062 35.2703 50.7969 35.4734L50.8062 36.2898C50.8516 42.6039 50.8961 48.9203 50.9398 55.2359Z" fill="#57AE47"/>
<path fill-rule="evenodd" clip-rule="evenodd" d="M50.7969 35.4703C50.6063 35.2672 50.3211 35.0969 50.2391 34.8562C49.0164 31.2641 47.8258 27.6617 46.6172 24.0648C45.3234 20.2133 44.0219 16.3648 42.7086 12.5195C42.6313 12.2953 42.4187 12.118 42.2695 11.9188C43.8078 10.4125 45.2984 8.85234 46.8984 7.41563C48.3211 6.13906 49.4648 4.77031 49.5172 2.75312C49.5195 2.66953 49.5633 2.58594 49.6305 2.35156L50.0359 3.37187C50.0258 3.88828 49.9797 4.40469 50.0133 4.91797C50.0719 5.81094 50.2156 6.69922 50.2563 7.59219C50.3313 9.25391 50.3672 10.9187 50.4008 12.5828C50.4547 15.2609 50.5039 17.9391 50.5375 20.618C50.5898 24.8977 50.6242 29.1773 50.6781 33.457C50.6844 34.1297 50.7547 34.7992 50.7969 35.4703Z" fill="#60B24F"/>
<path fill-rule="evenodd" clip-rule="evenodd" d="M48.9062 83.6602C49.1117 82.6328 49.382 81.6133 49.5094 80.5766C49.7633 78.507 49.9375 76.4266 50.1453 74.3516L50.1969 74.3438L50.2484 74.3523C50.3016 76.9487 50.6672 79.5293 51.3375 82.0383C51.2 82.2195 51.0055 82.3812 50.9328 82.5859C50.3648 84.1875 49.8297 85.8016 49.2586 87.4031C49.1805 87.6219 48.9633 87.7922 48.8102 87.9844L48.2266 85.9797L48.9062 83.6602Z" fill="#A9AA88"/>
<path fill-rule="evenodd" clip-rule="evenodd" d="M48.8086 87.9852C48.9617 87.793 49.1797 87.6227 49.257 87.4039C49.8281 85.8023 50.3641 84.1891 50.9312 82.5867C51.0039 82.382 51.1977 82.2203 51.3359 82.0391L52.3164 84.1906C52.1227 84.4656 51.8555 84.7133 51.7477 85.0195L49.8695 90.5344C49.7922 90.7555 49.5281 90.9117 49.3516 91.0984L48.8086 87.9852Z" fill="#B6B598"/>
<path fill-rule="evenodd" clip-rule="evenodd" d="M49.3516 91.0953C49.5289 90.9094 49.7922 90.7523 49.8695 90.5313L51.7477 85.0164C51.8547 84.7109 52.1227 84.4625 52.3164 84.1875L53.2656 84.9977C52.807 85.4508 52.5523 85.9742 52.7055 86.6359L52.4172 87.5797C52.2859 87.7414 52.0961 87.882 52.0312 88.0672C51.3758 89.9445 50.75 91.832 50.0898 93.7094C50.0062 93.9477 49.7742 94.1344 49.6102 94.3438C49.525 93.2602 49.4383 92.1789 49.3516 91.0953Z" fill="#C2C1A7"/>
<path fill-rule="evenodd" clip-rule="evenodd" d="M49.6129 94.3422C49.7762 94.132 50.0082 93.9453 50.0926 93.7078C50.7527 91.8312 51.3785 89.9437 52.034 88.0656C52.0988 87.8812 52.2879 87.7398 52.4199 87.5781L52.0223 91.9102C51.916 92.0328 51.7621 92.1398 51.7113 92.2828C51.2621 93.5437 50.8387 94.8141 50.3879 96.075C50.2949 96.3352 50.1168 96.5648 49.9777 96.8078C49.8543 96.6461 49.6332 96.4898 49.623 96.3211C49.5832 95.6641 49.6105 95.0023 49.6129 94.3422Z" fill="#CECDB7"/>
<path fill-rule="evenodd" clip-rule="evenodd" d="M49.9766 96.8117C50.1156 96.568 50.2938 96.3383 50.3867 96.0789C50.8383 94.8188 51.2609 93.5484 51.7102 92.2867C51.7609 92.1437 51.9156 92.0375 52.0211 91.9141L52.0305 94.7578L51.0789 97.1984L49.9766 96.8117Z" fill="#DBDAC7"/>
<path fill-rule="evenodd" clip-rule="evenodd" d="M51.0781 97.1984L52.0297 94.7578L52.2258 97.6453L51.0781 97.1984Z" fill="#EBE9DC"/>
<path fill-rule="evenodd" clip-rule="evenodd" d="M52.7048 86.6383C52.5517 85.9766 52.8056 85.4523 53.265 85L53.5282 85.1797L52.7048 86.6383Z" fill="#CECDB7"/>
<path fill-rule="evenodd" clip-rule="evenodd" d="M50.2477 74.3516L50.1961 74.343L50.1445 74.3508L50.2656 73.9141L50.2477 74.3516Z" fill="#4FAA41"/>
</svg>
