<svg width="100" height="100" viewBox="0 0 100 100" fill="none" xmlns="http://www.w3.org/2000/svg">
<g clip-path="url(#clip0_3609_2184)">
<mask id="mask0_3609_2184" style="mask-type:luminance" maskUnits="userSpaceOnUse" x="1" y="24" width="98" height="52">
<path d="M1.40625 49.9925C1.40625 64.11 23.1629 75.5547 50.0001 75.5547C76.8373 75.5547 98.5941 64.11 98.5941 49.9925C98.5941 35.8752 76.8373 24.4303 50.0001 24.4303C23.1629 24.4303 1.40625 35.8752 1.40625 49.9925Z" fill="white"/>
</mask>
<g mask="url(#mask0_3609_2184)">
<path d="M1.40625 49.9925C1.40625 64.11 23.1629 75.5547 50.0001 75.5547C76.8373 75.5547 98.5941 64.11 98.5941 49.9925C98.5941 35.8752 76.8373 24.4303 50.0001 24.4303C23.1629 24.4303 1.40625 35.8752 1.40625 49.9925Z" fill="url(#paint0_radial_3609_2184)"/>
</g>
<mask id="mask1_3609_2184" style="mask-type:luminance" maskUnits="userSpaceOnUse" x="-1" y="21" width="102" height="58">
<path d="M-0.617188 21.5228H100.62V78.4688H-0.617188V21.5228Z" fill="white"/>
</mask>
<g mask="url(#mask1_3609_2184)">
<path d="M50.0003 73.6562C75.7893 73.6562 96.696 63.0613 96.696 49.9919C96.696 36.9226 75.7893 26.3275 50.0003 26.3275C24.2114 26.3275 3.30469 36.9226 3.30469 49.9919C3.30469 63.0613 24.2114 73.6562 50.0003 73.6562Z" fill="#777BB3"/>
</g>
<mask id="mask2_3609_2184" style="mask-type:luminance" maskUnits="userSpaceOnUse" x="-1" y="21" width="102" height="58">
<path d="M-0.617188 21.5228H100.62V78.4688H-0.617188V21.5228Z" fill="white"/>
</mask>
<g mask="url(#mask2_3609_2184)">
<path d="M27.8102 52.9361C29.9308 52.9361 31.5138 52.545 32.5155 51.7741C33.5064 51.0112 34.1908 49.6893 34.5495 47.8454C34.884 46.1219 34.7566 44.9185 34.171 44.2691C33.5721 43.6057 32.2775 43.2693 30.3231 43.2693H26.9343L25.0556 52.9361H27.8102ZM16.7264 64.8438C16.569 64.8438 16.4197 64.7734 16.3196 64.6518C16.2195 64.5304 16.1789 64.3704 16.2089 64.2159L21.1878 38.5989C21.236 38.3513 21.453 38.1723 21.7054 38.1723H32.4362C35.8087 38.1723 38.3189 39.088 39.8967 40.8943C41.4829 42.7101 41.9727 45.2482 41.3525 48.4381C41.1001 49.7376 40.666 50.9446 40.0622 52.0251C39.4578 53.1069 38.659 54.1079 37.6875 55.0007C36.5247 56.089 35.2086 56.8782 33.7794 57.3425C32.3728 57.8007 30.5663 58.0331 28.4103 58.0331H24.0652L22.8243 64.417C22.7762 64.6648 22.5593 64.8438 22.3069 64.8438H16.7264Z" fill="black"/>
<path d="M27.3689 43.7928H30.323C32.6819 43.7928 33.5013 44.3104 33.7797 44.6188C34.2416 45.131 34.3288 46.2109 34.0319 47.7415C33.6983 49.4552 33.08 50.6702 32.1938 51.3525C31.2865 52.051 29.8116 52.405 27.8102 52.405H25.6951L27.3689 43.7928ZM32.4362 37.6412H21.7052C21.2004 37.6412 20.7665 37.9991 20.6702 38.4945L15.6913 64.1116C15.6312 64.4207 15.7124 64.7404 15.9126 64.9835C16.1129 65.2266 16.4114 65.3672 16.7263 65.3672H22.3067C22.8116 65.3672 23.2456 65.0093 23.3419 64.5139L24.4998 58.5565H28.4102C30.6216 58.5565 32.4833 58.3154 33.943 57.84C35.4441 57.3522 36.8252 56.5253 38.0476 55.3821C39.0586 54.452 39.8913 53.408 40.5223 52.2788C41.1535 51.1492 41.6069 49.8895 41.87 48.5347C42.523 45.1771 41.9925 42.4883 40.2937 40.5437C38.6113 38.6177 35.9675 37.6412 32.4362 37.6412ZM24.4158 53.4595H27.8102C30.0601 53.4595 31.736 53.0358 32.8371 52.1881C33.9384 51.3402 34.6812 49.9252 35.0671 47.9423C35.4364 46.0384 35.2682 44.6949 34.5625 43.9123C33.856 43.1296 32.443 42.7382 30.323 42.7382H26.4996L24.4158 53.4595ZM32.4362 38.6958C35.6643 38.6958 38.0193 39.5429 39.4996 41.2374C40.9796 42.9319 41.4254 45.2971 40.8348 48.3337C40.5917 49.5846 40.1806 50.7282 39.6019 51.7643C39.0224 52.8011 38.2658 53.7492 37.3307 54.6088C36.2164 55.6516 34.9785 56.3947 33.6164 56.8373C32.2543 57.281 30.5194 57.502 28.4102 57.502H23.6303L22.3067 64.3126H16.7263L21.7052 38.6958H32.4362Z" fill="white"/>
<path d="M54.1457 58.0312C53.9882 58.0312 53.839 57.9609 53.739 57.8393C53.6386 57.7179 53.598 57.5581 53.6281 57.4034L55.8305 46.0689C56.04 44.991 55.9884 44.2173 55.6852 43.8904C55.4996 43.6905 54.9421 43.3554 53.2936 43.3554H49.3035L46.5345 57.6045C46.4863 57.8523 46.2692 58.0312 46.0168 58.0312H40.4804C40.323 58.0312 40.1737 57.9609 40.0736 57.8393C39.9734 57.7179 39.9328 57.5579 39.9628 57.4034L44.9417 31.7864C44.9899 31.5388 45.2069 31.3598 45.4593 31.3598H50.9957C51.1532 31.3598 51.3024 31.4301 51.4026 31.5516C51.5028 31.6732 51.5434 31.833 51.5134 31.9876L50.3119 38.1705H54.6042C57.8742 38.1705 60.0916 38.747 61.3831 39.933C62.6995 41.1429 63.1103 43.0775 62.6041 45.6837L60.2876 57.6045C60.2394 57.8523 60.0225 58.0312 59.77 58.0312H54.1457Z" fill="black"/>
<path d="M50.9957 30.8287H45.4593C44.9543 30.8287 44.5204 31.1866 44.4241 31.682L39.4452 57.2991C39.3851 57.6082 39.4663 57.9279 39.6666 58.171C39.867 58.4141 40.1654 58.5547 40.4804 58.5547H46.0168C46.5216 58.5547 46.9557 58.1968 47.052 57.7014L49.7381 43.8788H53.2936C54.9392 43.8788 55.2846 44.2303 55.2985 44.2454C55.3983 44.3528 55.5296 44.8502 55.3129 45.9645L53.1104 57.2991C53.0503 57.6082 53.1315 57.9279 53.3319 58.171C53.5323 58.4141 53.8307 58.5547 54.1457 58.5547H59.7699C60.2747 58.5547 60.7088 58.1968 60.8052 57.7014L63.1215 45.7805C63.6651 42.9823 63.2001 40.8832 61.7399 39.5411C60.3464 38.2614 58.0124 37.6394 54.6042 37.6394H50.9512L52.0309 32.0845C52.0909 31.7753 52.0098 31.4555 51.8095 31.2126C51.6091 30.9695 51.3107 30.8287 50.9957 30.8287ZM50.9957 31.8833L49.6721 38.6939H54.6042C57.7076 38.6939 59.8482 39.2356 61.0263 40.3176C62.2044 41.4003 62.5573 43.1545 62.0864 45.5795L59.7699 57.5001H54.1457L56.3481 46.1658C56.5987 44.8764 56.5066 43.9969 56.0714 43.528C55.6361 43.0591 54.71 42.8243 53.2936 42.8243H48.8687L46.0168 57.5001H40.4804L45.4593 31.8833H50.9957Z" fill="white"/>
<path d="M71.3649 52.9361C73.4854 52.9361 75.0685 52.545 76.0701 51.7741C77.0611 51.0113 77.7455 49.6895 78.1044 47.8454C78.4389 46.1219 78.3114 44.9185 77.7256 44.2691C77.1268 43.6057 75.8322 43.2693 73.8777 43.2693H70.4889L68.6102 52.9361H71.3649ZM60.2812 64.8438C60.1239 64.8438 59.9745 64.7734 59.8745 64.6518C59.7743 64.5304 59.7335 64.3704 59.7636 64.2159L64.7425 38.5989C64.7908 38.3513 65.0077 38.1723 65.2603 38.1723H75.9909C79.3635 38.1723 81.8735 39.088 83.4515 40.8943C85.0377 42.7099 85.5274 45.248 84.9073 48.4381C84.6546 49.7376 84.2206 50.9446 83.6169 52.0251C83.0125 53.1069 82.2136 54.1079 81.2422 55.0007C80.0794 56.089 78.7633 56.8782 77.334 57.3425C75.9274 57.8007 74.121 58.0331 71.9649 58.0331H67.6197L66.3793 64.417C66.331 64.6648 66.1141 64.8438 65.8615 64.8438H60.2812Z" fill="black"/>
<path d="M70.9234 43.7928H73.8775C76.2364 43.7928 77.0558 44.3104 77.3342 44.6188C77.7963 45.131 77.8834 46.2109 77.5864 47.7414C77.2528 49.4552 76.6343 50.6702 75.7483 51.3525C74.8411 52.051 73.3661 52.405 71.3647 52.405H69.2498L70.9234 43.7928ZM75.9907 37.6412H65.2599C64.7551 37.6412 64.3212 37.9991 64.2249 38.4945L59.246 64.1116C59.1858 64.4207 59.2671 64.7404 59.4672 64.9835C59.6676 65.2266 59.966 65.3672 60.281 65.3672H65.8614C66.3661 65.3672 66.8003 65.0093 66.8966 64.5139L68.0543 58.5565H71.9648C74.1762 58.5565 76.0378 58.3154 77.4975 57.84C78.9986 57.3522 80.3801 56.5251 81.6025 55.3818C82.6135 54.4519 83.4459 53.408 84.0768 52.2788C84.708 51.1492 85.1614 49.8895 85.4246 48.5347C86.0775 45.1769 85.5471 42.4881 83.8482 40.5435C82.1658 38.6177 79.5222 37.6412 75.9907 37.6412ZM67.9705 53.4595H71.3647C73.6146 53.4595 75.2905 53.0358 76.3916 52.1881C77.4931 51.3402 78.2357 49.9252 78.6216 47.9423C78.9911 46.0384 78.8229 44.6949 78.117 43.9123C77.4105 43.1296 75.9975 42.7382 73.8775 42.7382H70.0541L67.9705 53.4595ZM75.9907 38.6958C79.2189 38.6958 81.5739 39.5429 83.0541 41.2374C84.5343 42.9319 84.9799 45.2971 84.3893 48.3337C84.1463 49.5846 83.7352 50.7282 83.1564 51.7643C82.5769 52.8011 81.8203 53.7492 80.8852 54.6088C79.7709 55.6516 78.533 56.3947 77.1709 56.8373C75.8088 57.281 74.0739 57.502 71.9648 57.502H67.1848L65.8614 64.3126H60.281L65.2599 38.6958H75.9907Z" fill="white"/>
</g>
</g>
<defs>
<radialGradient id="paint0_radial_3609_2184" cx="0" cy="0" r="1" gradientUnits="userSpaceOnUse" gradientTransform="translate(30.5822 33.4172) scale(63.8107 63.8107)">
<stop stop-color="#AEB2D5"/>
<stop offset="0.3" stop-color="#AEB2D5"/>
<stop offset="0.75" stop-color="#484C89"/>
<stop offset="1" stop-color="#484C89"/>
</radialGradient>
<clipPath id="clip0_3609_2184">
<rect width="100" height="100" fill="white"/>
</clipPath>
</defs>
</svg>
